<?xml version="1.0" encoding="UTF-8"?>
<svg xmlns="http://www.w3.org/2000/svg" xmlns:xlink="http://www.w3.org/1999/xlink" width="854" height="480" viewBox="0 0 854 480">
<defs>
<g>
<g id="glyph-0-0">
<path d="M 2.152344 -0.0742188 C 2.570312 -0.0742188 2.855469 -0.324219 3.011719 -0.816406 C 3.09375 -1.085938 3.136719 -1.433594 3.136719 -1.863281 C 3.136719 -2.453125 3.046875 -2.902344 2.871094 -3.199219 C 2.695312 -3.5 2.457031 -3.652344 2.152344 -3.652344 C 1.734375 -3.652344 1.445312 -3.402344 1.292969 -2.898438 C 1.210938 -2.632812 1.167969 -2.289062 1.167969 -1.863281 C 1.167969 -1.429688 1.210938 -1.082031 1.292969 -0.816406 C 1.449219 -0.324219 1.734375 -0.0742188 2.152344 -0.0742188 Z M 2.152344 -3.839844 C 2.714844 -3.839844 3.179688 -3.65625 3.550781 -3.296875 C 3.933594 -2.925781 4.125 -2.449219 4.125 -1.863281 C 4.125 -1.28125 3.933594 -0.800781 3.550781 -0.429688 C 3.179688 -0.0703125 2.710938 0.109375 2.152344 0.109375 C 1.558594 0.109375 1.078125 -0.0859375 0.703125 -0.484375 C 0.355469 -0.855469 0.179688 -1.304688 0.179688 -1.832031 C 0.179688 -2.414062 0.363281 -2.894531 0.726562 -3.269531 C 1.097656 -3.648438 1.570312 -3.839844 2.152344 -3.839844 Z "/>
</g>
<g id="glyph-0-1">
<path d="M 1.136719 -2.558594 L 1.136719 -0.671875 C 1.136719 -0.558594 1.148438 -0.476562 1.175781 -0.425781 C 1.222656 -0.332031 1.316406 -0.289062 1.457031 -0.289062 C 1.546875 -0.289062 1.632812 -0.316406 1.71875 -0.371094 C 1.765625 -0.402344 1.828125 -0.453125 1.902344 -0.527344 L 1.902344 -2.101562 C 1.902344 -2.21875 1.878906 -2.300781 1.832031 -2.34375 C 1.785156 -2.390625 1.695312 -2.417969 1.554688 -2.421875 L 1.554688 -2.558594 L 2.660156 -2.558594 L 2.660156 -0.558594 C 2.660156 -0.441406 2.683594 -0.363281 2.726562 -0.320312 C 2.769531 -0.273438 2.855469 -0.246094 2.980469 -0.234375 L 2.980469 -0.109375 C 2.636719 -0.078125 2.421875 -0.0507812 2.332031 -0.0351562 C 2.242188 -0.0195312 2.097656 0.015625 1.902344 0.078125 L 1.902344 -0.289062 C 1.769531 -0.175781 1.660156 -0.09375 1.574219 -0.046875 C 1.421875 0.0351562 1.261719 0.078125 1.097656 0.078125 C 0.917969 0.078125 0.753906 0.0234375 0.597656 -0.09375 C 0.445312 -0.207031 0.367188 -0.410156 0.367188 -0.699219 L 0.367188 -2.101562 C 0.367188 -2.21875 0.347656 -2.296875 0.308594 -2.332031 C 0.269531 -2.367188 0.199219 -2.398438 0.0898438 -2.421875 L 0.0898438 -2.558594 Z "/>
</g>
<g id="glyph-0-2">
<path d="M 0.0898438 -2.3125 L 0.0898438 -2.46875 C 0.136719 -2.515625 0.199219 -2.566406 0.269531 -2.628906 C 0.367188 -2.71875 0.457031 -2.808594 0.542969 -2.902344 C 0.710938 -3.085938 0.863281 -3.285156 1 -3.496094 L 1.140625 -3.496094 L 1.140625 -2.558594 L 1.671875 -2.558594 L 1.671875 -2.3125 L 1.140625 -2.3125 L 1.140625 -0.644531 C 1.140625 -0.566406 1.152344 -0.5 1.175781 -0.449219 C 1.214844 -0.367188 1.273438 -0.324219 1.355469 -0.324219 C 1.429688 -0.324219 1.488281 -0.351562 1.539062 -0.402344 C 1.585938 -0.453125 1.636719 -0.523438 1.683594 -0.617188 L 1.816406 -0.550781 C 1.753906 -0.398438 1.675781 -0.273438 1.585938 -0.179688 C 1.425781 -0.0117188 1.230469 0.0742188 1 0.0742188 C 0.871094 0.0742188 0.757812 0.0507812 0.660156 0 C 0.472656 -0.09375 0.378906 -0.265625 0.378906 -0.511719 L 0.378906 -2.3125 Z "/>
</g>
<g id="glyph-0-3">
<path d="M 1.625 -0.230469 C 1.824219 -0.230469 1.960938 -0.363281 2.03125 -0.628906 C 2.070312 -0.777344 2.089844 -0.988281 2.089844 -1.261719 C 2.089844 -1.578125 2.058594 -1.832031 2.003906 -2.023438 C 1.945312 -2.210938 1.828125 -2.304688 1.648438 -2.304688 C 1.53125 -2.304688 1.421875 -2.253906 1.328125 -2.148438 C 1.234375 -2.042969 1.1875 -1.96875 1.1875 -1.921875 L 1.1875 -0.570312 C 1.1875 -0.515625 1.234375 -0.445312 1.324219 -0.359375 C 1.414062 -0.273438 1.511719 -0.230469 1.625 -0.230469 Z M 0.101562 1.011719 C 0.21875 1 0.300781 0.972656 0.34375 0.929688 C 0.386719 0.886719 0.410156 0.804688 0.410156 0.6875 L 0.410156 -2.101562 C 0.410156 -2.21875 0.390625 -2.296875 0.347656 -2.335938 C 0.308594 -2.378906 0.230469 -2.40625 0.113281 -2.421875 L 0.113281 -2.558594 L 1.175781 -2.558594 L 1.175781 -2.191406 C 1.25 -2.316406 1.324219 -2.410156 1.398438 -2.472656 C 1.527344 -2.578125 1.695312 -2.628906 1.894531 -2.628906 C 2.1875 -2.628906 2.429688 -2.519531 2.621094 -2.300781 C 2.8125 -2.082031 2.910156 -1.753906 2.910156 -1.320312 C 2.910156 -0.917969 2.808594 -0.582031 2.601562 -0.320312 C 2.394531 -0.0546875 2.140625 0.078125 1.84375 0.078125 C 1.691406 0.078125 1.550781 0.0351562 1.414062 -0.0546875 C 1.339844 -0.101562 1.265625 -0.167969 1.1875 -0.253906 L 1.1875 0.214844 C 1.191406 0.464844 1.191406 0.605469 1.195312 0.636719 C 1.207031 0.78125 1.242188 0.882812 1.304688 0.9375 C 1.367188 0.992188 1.472656 1.023438 1.621094 1.03125 L 1.621094 1.144531 L 0.101562 1.144531 Z "/>
</g>
<g id="glyph-0-4">
<path d="M 0.140625 -0.839844 L 0.296875 -0.839844 C 0.351562 -0.574219 0.453125 -0.386719 0.597656 -0.277344 C 0.746094 -0.167969 0.898438 -0.113281 1.054688 -0.113281 C 1.199219 -0.113281 1.304688 -0.144531 1.371094 -0.210938 C 1.4375 -0.273438 1.46875 -0.359375 1.46875 -0.464844 C 1.46875 -0.5625 1.433594 -0.648438 1.363281 -0.71875 C 1.324219 -0.757812 1.257812 -0.796875 1.167969 -0.839844 L 0.757812 -1.042969 C 0.539062 -1.148438 0.382812 -1.265625 0.289062 -1.390625 C 0.195312 -1.515625 0.148438 -1.660156 0.148438 -1.832031 C 0.148438 -2.046875 0.222656 -2.230469 0.371094 -2.386719 C 0.523438 -2.542969 0.730469 -2.625 1 -2.625 C 1.117188 -2.625 1.242188 -2.605469 1.375 -2.566406 C 1.507812 -2.527344 1.589844 -2.507812 1.621094 -2.507812 C 1.667969 -2.507812 1.699219 -2.515625 1.71875 -2.535156 C 1.738281 -2.554688 1.753906 -2.582031 1.765625 -2.613281 L 1.886719 -2.613281 L 1.886719 -1.8125 L 1.746094 -1.8125 C 1.695312 -2 1.609375 -2.152344 1.488281 -2.265625 C 1.371094 -2.378906 1.230469 -2.4375 1.070312 -2.4375 C 0.949219 -2.4375 0.855469 -2.402344 0.796875 -2.332031 C 0.734375 -2.265625 0.707031 -2.191406 0.707031 -2.109375 C 0.707031 -2.046875 0.734375 -1.980469 0.785156 -1.914062 C 0.839844 -1.847656 0.9375 -1.78125 1.085938 -1.710938 L 1.390625 -1.5625 C 1.578125 -1.472656 1.714844 -1.382812 1.800781 -1.300781 C 1.945312 -1.15625 2.019531 -0.976562 2.019531 -0.765625 C 2.019531 -0.558594 1.945312 -0.367188 1.792969 -0.1875 C 1.644531 -0.0117188 1.421875 0.078125 1.125 0.078125 C 1.050781 0.078125 0.972656 0.0703125 0.898438 0.0546875 C 0.824219 0.0390625 0.730469 0.0117188 0.621094 -0.0234375 L 0.527344 -0.0585938 C 0.492188 -0.0703125 0.46875 -0.078125 0.460938 -0.078125 C 0.453125 -0.0820312 0.445312 -0.0820312 0.429688 -0.0820312 C 0.398438 -0.0820312 0.375 -0.0703125 0.351562 -0.0429688 C 0.328125 -0.0195312 0.304688 0.0195312 0.273438 0.078125 L 0.140625 0.078125 Z "/>
</g>
<g id="glyph-0-5">
<path d="M 0.441406 -2.152344 C 0.441406 -2.285156 0.488281 -2.394531 0.582031 -2.484375 C 0.671875 -2.578125 0.78125 -2.625 0.910156 -2.625 C 1.042969 -2.625 1.152344 -2.578125 1.242188 -2.484375 C 1.335938 -2.390625 1.378906 -2.28125 1.378906 -2.152344 C 1.378906 -2.023438 1.335938 -1.914062 1.242188 -1.820312 C 1.152344 -1.730469 1.042969 -1.683594 0.910156 -1.683594 C 0.78125 -1.683594 0.671875 -1.730469 0.578125 -1.820312 C 0.488281 -1.914062 0.441406 -2.023438 0.441406 -2.152344 Z M 0.441406 -0.390625 C 0.441406 -0.519531 0.488281 -0.632812 0.578125 -0.722656 C 0.671875 -0.8125 0.78125 -0.859375 0.910156 -0.859375 C 1.042969 -0.859375 1.152344 -0.8125 1.242188 -0.722656 C 1.335938 -0.632812 1.378906 -0.519531 1.378906 -0.390625 C 1.378906 -0.261719 1.335938 -0.148438 1.242188 -0.0585938 C 1.152344 0.03125 1.042969 0.078125 0.910156 0.078125 C 0.78125 0.078125 0.671875 0.03125 0.578125 -0.0585938 C 0.488281 -0.148438 0.441406 -0.261719 0.441406 -0.390625 Z "/>
</g>
</g>
</defs>
<g fill="rgb(90.980392%, 75.686275%, 10.980392%)" fill-opacity="1">
<use xlink:href="#glyph-0-0" x="30" y="24.166992"/>
<use xlink:href="#glyph-0-1" x="34" y="24.166992"/>
<use xlink:href="#glyph-0-2" x="37" y="24.166992"/>
<use xlink:href="#glyph-0-3" x="39" y="24.166992"/>
<use xlink:href="#glyph-0-1" x="42" y="24.166992"/>
<use xlink:href="#glyph-0-2" x="45" y="24.166992"/>
<use xlink:href="#glyph-0-4" x="47" y="24.166992"/>
<use xlink:href="#glyph-0-5" x="49" y="24.166992"/>
</g>
</svg>
